<svg width="326" height="83" viewBox="0 0 326 83" fill="none" xmlns="http://www.w3.org/2000/svg">
<path d="M2.64375 8.72709C-0.15625 9.12709 -0.189583 11.8938 0.14375 13.2271C3.47708 29.2271 10.2437 61.7271 10.6437 63.7271C11.0437 65.7271 14.1437 66.5604 15.6437 66.7271L26.1437 67.2271C25.3104 69.8938 23.4437 76.2271 22.6437 80.2271C21.8437 84.2271 25.3104 82.8938 27.1437 81.7271L56.6437 59.2271H75.6437C79.6437 59.2271 80.9771 56.5604 81.1437 55.2271C83.1437 39.7271 87.2437 7.72709 87.6437 3.72709C88.0437 -0.27291 85.1437 -0.27291 83.6437 0.22709C57.8104 2.89376 5.44375 8.32709 2.64375 8.72709Z" fill="#37983A"/>
<rect x="106" y="5" width="15" height="74" fill="black"/>
<rect x="248" y="26" width="15" height="53" fill="black"/>
<path fill-rule="evenodd" clip-rule="evenodd" d="M156.5 79C171.136 79 183 67.1355 183 52.5C183 37.8645 171.136 26 156.5 26C141.864 26 130 37.8645 130 52.5C130 67.1355 141.864 79 156.5 79ZM156.5 66C163.956 66 170 59.9558 170 52.5C170 45.0442 163.956 39 156.5 39C149.044 39 143 45.0442 143 52.5C143 59.9558 149.044 66 156.5 66Z" fill="black"/>
<path fill-rule="evenodd" clip-rule="evenodd" d="M299.5 79C314.136 79 326 67.1355 326 52.5C326 37.8645 314.136 26 299.5 26C284.864 26 273 37.8645 273 52.5C273 67.1355 284.864 79 299.5 79ZM299.5 66C306.956 66 313 59.9558 313 52.5C313 45.0442 306.956 39 299.5 39C292.044 39 286 45.0442 286 52.5C286 59.9558 292.044 66 299.5 66Z" fill="black"/>
<path fill-rule="evenodd" clip-rule="evenodd" d="M208 5H193V79H208V49.8824L223 79H241.5L228 53C231.833 49.5 238.8 39.4 236 27H221.5C222.453 33.0358 220.954 44.824 208 45.9181V5Z" fill="black"/>
<circle cx="255.5" cy="12.5" r="8.5" fill="black"/>
</svg>
