<?xml version="1.0" encoding="UTF-8" standalone="no"?>
<!DOCTYPE svg PUBLIC "-//W3C//DTD SVG 1.1//EN" "http://www.w3.org/Graphics/SVG/1.1/DTD/svg11.dtd">
<svg xmlns="http://www.w3.org/2000/svg" xmlns:xlink="http://www.w3.org/1999/xlink" version="1.1" width="402pt" height="378.279pt" viewBox="0 0 402 378.279">
<g enable-background="new">
<g id="Layer-1" data-name="Layer 1">
<clipPath id="cp0">
<path transform="matrix(1,0,0,-1,0,378.279)" d="M 0 378.279 L 402 378.279 L 402 0 L 0 0 Z "/>
</clipPath>
<g clip-path="url(#cp0)">
<path transform="matrix(1,0,0,-1,201.002,87.032108)" d="M 0 0 C 14.276 0 25.85 -11.575 25.85 -25.853 C 25.85 -40.131 14.276 -51.706 -.001 -51.706 C -14.28 -51.706 -25.854 -40.13 -25.854 -25.853 C -25.854 -11.575 -14.28 0 0 0 " fill="#009933" fill-rule="evenodd"/>
<path transform="matrix(1,0,0,-1,184.4067,215.31339)" d="M 0 0 C 0 -9.163 7.428 -16.594 16.593 -16.595 L 16.594 -16.595 C 7.428 -16.595 -.003 -9.163 -.003 0 L -.003 10.383 C -.003 33.293 -18.64 51.93 -41.551 51.93 L -51.932 51.93 C -61.078 51.93 -68.494 59.326 -68.527 68.463 L -68.527 68.586 C -68.494 77.704 -61.11 85.086 -51.994 85.12 L -41.451 85.12 C -18.024 85.088 2.901 74.215 16.593 57.268 C 6.225 44.435 0 28.126 0 10.383 Z " fill="#33cc33" fill-rule="evenodd"/>
<path transform="matrix(1,0,0,-1,260.2705,180.20299)" d="M 0 0 C 14.276 0 25.85 -11.575 25.85 -25.853 C 25.85 -40.131 14.276 -51.705 0 -51.705 C -14.28 -51.705 -25.853 -40.13 -25.853 -25.853 C -25.853 -11.575 -14.28 0 0 0 " fill="#006633" fill-rule="evenodd"/>
<path transform="matrix(1,0,0,-1,141.7319,180.20299)" d="M 0 0 C 14.277 0 25.851 -11.575 25.851 -25.853 C 25.851 -40.131 14.277 -51.705 0 -51.705 C -14.259 -51.705 -25.822 -40.16 -25.852 -25.909 L -25.852 -25.797 C -25.822 -11.545 -14.259 0 0 0 " fill="#33cc33" fill-rule="evenodd"/>
<path transform="matrix(1,0,0,-1,269.5259,163.3837)" d="M 0 0 L -10.383 0 C -33.293 0 -51.931 -18.637 -51.931 -41.546 L -51.931 -51.93 C -51.931 -61.093 -59.36 -68.524 -68.525 -68.524 C -59.36 -68.523 -51.931 -61.093 -51.931 -51.93 L -51.931 -41.546 C -51.931 -23.803 -58.159 -7.495 -68.526 5.338 C -54.832 22.286 -33.909 33.159 -10.482 33.19 L .062 33.19 C 9.198 33.157 16.595 25.741 16.595 16.595 C 16.595 7.43 9.165 0 0 0 " fill="#009933" fill-rule="evenodd"/>
<path transform="matrix(1,0,0,-1,217.5952,215.31339)" d="M 0 0 C 0 -9.163 -7.429 -16.594 -16.595 -16.595 C -25.76 -16.594 -33.188 -9.163 -33.188 0 L -33.188 10.383 C -33.188 28.126 -26.963 44.435 -16.595 57.268 C -6.228 44.435 0 28.126 0 10.383 Z " fill="#006633" fill-rule="evenodd"/>
<path transform="matrix(1,0,0,-1,269.5259,163.3837)" d="M 0 0 L -10.383 0 C -33.293 0 -51.931 -18.637 -51.931 -41.546 L -51.931 -51.93 C -51.931 -61.093 -59.36 -68.524 -68.525 -68.524 C -59.36 -68.523 -51.931 -61.093 -51.931 -51.93 L -51.931 -41.546 C -51.931 -23.803 -58.159 -7.495 -68.526 5.338 C -54.832 22.286 -33.909 33.159 -10.482 33.19 L .062 33.19 C 9.198 33.157 16.595 25.741 16.595 16.595 C 16.595 7.43 9.165 0 0 0 " fill="#009933" fill-rule="evenodd"/>
<path transform="matrix(1,0,0,-1,217.5952,215.31339)" d="M 0 0 C 0 -9.163 -7.429 -16.594 -16.595 -16.595 C -25.76 -16.594 -33.188 -9.163 -33.188 0 L -33.188 10.383 C -33.188 28.126 -26.963 44.435 -16.595 57.268 C -6.228 44.435 0 28.126 0 10.383 Z " fill="#006633" fill-rule="evenodd"/>
</g>
<symbol id="font_1_44">
<path d="M .4169922 .5449219 L .5498047 .5449219 L .5498047 .013671875 L .4169922 .013671875 L .4169922 .06982422 C .39095054 .045084638 .3647461 .02718099 .3383789 .016113282 C .31233726 .0053710939 .28401695 0 .25341798 0 C .18473308 0 .12532552 .026529948 .07519531 .079589847 C .025065104 .13297527 0 .19921875 0 .2783203 C 0 .36035157 .024251303 .42757163 .072753909 .47998048 C .12125651 .53238937 .18017578 .55859377 .24951172 .55859377 C .28141276 .55859377 .3113607 .5525716 .33935548 .54052737 C .36735026 .5284831 .39322917 .5104167 .4169922 .48632813 L .4169922 .5449219 M .27685548 .43554688 C .23551433 .43554688 .20117188 .42089845 .17382813 .39160157 C .14648438 .36263023 .1328125 .32535807 .1328125 .27978517 C .1328125 .23388672 .14664714 .1961263 .1743164 .1665039 C .2023112 .13688152 .23665364 .12207031 .27734376 .12207031 C .31933595 .12207031 .35416667 .13655599 .38183595 .16552735 C .40950523 .19482422 .42333985 .23307292 .42333985 .28027345 C .42333985 .3264974 .40950523 .36393229 .38183595 .39257813 C .35416667 .42122398 .3191732 .43554688 .27685548 .43554688 Z "/>
</symbol>
<symbol id="font_1_50">
<path d="M 0 .53125 L .13378906 .53125 L .13378906 .47021485 C .15657552 .49527995 .18180339 .5139974 .20947266 .5263672 C .23746746 .538737 .26790367 .5449219 .30078126 .5449219 C .33398438 .5449219 .36393229 .5367839 .390625 .5205078 C .41731773 .50423178 .4388021 .48046876 .45507813 .44921876 C .47623698 .48046876 .5021159 .50423178 .53271487 .5205078 C .56363937 .5367839 .59733077 .5449219 .63378909 .5449219 C .6715495 .5449219 .7047526 .5361328 .73339846 .5185547 C .76204428 .50097659 .78255209 .47802735 .7949219 .44970704 C .8076172 .42138673 .81396487 .37532554 .81396487 .31152345 L .81396487 0 L .6796875 0 L .6796875 .26953126 C .6796875 .3297526 .6722005 .37044273 .65722659 .39160157 C .6422526 .41308595 .6197917 .42382813 .58984377 .42382813 C .5670573 .42382813 .5465495 .41731773 .5283203 .40429688 C .5104167 .39127604 .4970703 .37320964 .48828126 .35009767 C .4794922 .3273112 .47509767 .29052735 .47509767 .2397461 L .47509767 0 L .3408203 0 L .3408203 .25732423 C .3408203 .30485026 .3372396 .33919273 .33007813 .36035157 C .3232422 .38183595 .31282554 .39778648 .29882813 .40820313 C .28483073 .41861979 .26790367 .42382813 .24804688 .42382813 C .22591146 .42382813 .20572917 .41715495 .1875 .4038086 C .16959636 .39078776 .15608724 .37239585 .14697266 .3486328 C .1381836 .32486979 .13378906 .2874349 .13378906 .23632813 L .13378906 0 L 0 0 L 0 .53125 Z "/>
</symbol>
<symbol id="font_1_4f">
<path d="M 0 .7363281 L .13330078 .7363281 L .13330078 0 L 0 0 L 0 .7363281 Z "/>
</symbol>
<symbol id="font_1_4e">
<path d="M 0 .7363281 L .13330078 .7363281 L .13330078 .31201173 L .32958985 .53125 L .49658204 .53125 L .2680664 .2763672 L .52441409 0 L .35888673 0 L .13330078 .2446289 L .13330078 0 L 0 0 L 0 .7363281 Z "/>
</symbol>
<symbol id="font_1_51">
<path d="M 0 .53125 L .1328125 .53125 L .1328125 .47705079 C .16308594 .5024414 .19042969 .52001956 .21484375 .52978518 C .23958333 .5398763 .2648112 .5449219 .29052735 .5449219 C .34326173 .5449219 .38802085 .52652999 .4248047 .4897461 C .45572917 .4584961 .4711914 .41227214 .4711914 .35107423 L .4711914 0 L .33935548 0 L .33935548 .23291016 C .33935548 .29638673 .33642579 .33854167 .3305664 .359375 C .32503257 .38020835 .31510417 .3959961 .30078126 .40673829 C .28678385 .417806 .2693685 .42333985 .24853516 .42333985 C .22151692 .42333985 .19824219 .41422526 .17871094 .3959961 C .1595052 .37809245 .14615886 .3531901 .13867188 .32128907 C .13476563 .3046875 .1328125 .26871745 .1328125 .2133789 L .1328125 0 L 0 0 L 0 .53125 Z "/>
</symbol>
<use xlink:href="#font_1_44" transform="matrix(40.8011,0,0,-40.8011,114.208278,279.29194)" fill="#333333"/>
<use xlink:href="#font_1_50" transform="matrix(40.8011,0,0,-40.8011,142.09328,278.7341)" fill="#333333"/>
<use xlink:href="#font_1_44" transform="matrix(40.8011,0,0,-40.8011,179.49005,279.29194)" fill="#333333"/>
<use xlink:href="#font_1_4f" transform="matrix(40.8011,0,0,-40.8011,206.83715,278.7341)" fill="#333333"/>
<use xlink:href="#font_1_4e" transform="matrix(40.8011,0,0,-40.8011,217.24701,278.7341)" fill="#333333"/>
<use xlink:href="#font_1_44" transform="matrix(40.8011,0,0,-40.8011,239.87569,279.29194)" fill="#333333"/>
<use xlink:href="#font_1_51" transform="matrix(40.8011,0,0,-40.8011,267.80055,278.7341)" fill="#333333"/>
</g>
</g>
</svg>
